# xmcd
#
# Track frame offsets: 
#        150
#        13504
#        24270
#        44429
#        62573
#        78977
#        94717
#        109483
#        121813
#        133067
#        146427
#        158187
#        172511
#        189583
#        201249
#        217657
#        233435
#        244257
#        258903
#        271835
#        284042
#        295486
#        308775
#        322246
#        332488
#
# Disc length: 4623 seconds
#
# Revision: 0
# Processed by: cddbd v1.5.2PL0 Copyright (c) Steve Scherf et al.
# Submitted via: ExactAudioCopy v1.0b1
#
DISCID=61120d19
DTITLE=Va  - 101 Pirate Radio Hits - Disc 4  FLAC
DYEAR=1900
DGENRE=
TTITLE0=Bob Crewe Generation - Music to Watch Girls By
TTITLE1=Paul Jones - I've been a Bad Bad Boy
TTITLE2=Keith West - Excerpt From a Teenage Opera
TTITLE3=Procol Harum - A Whiter Shade of Pale
TTITLE4=Donovan - Mellow Yellow
TTITLE5=Tommy James and the Shondells - Crimson and Clover
TTITLE6=The Cryin' Shames - Please Stay
TTITLE7=Aretha Franklin - I Never Loved a Man (The Way I Love You)
TTITLE8=The Young Rascals - Groovin'
TTITLE9=Scott McKenzie - San Fransisco (Be Sure to Wear Some Flowers i
TTITLE9=n Your Hair)
TTITLE10=Warm Sounds - Birds and Bees
TTITLE11=Twice as Much - Sittin' On a Fence
TTITLE12=Simon Dupree and the Big Sound - Kites
TTITLE13=David McWilliams - The Days of Pearly spencer
TTITLE14=The Beachboys - Heros and Villians
TTITLE15=Sonny and Cher - The Beat Goes On
TTITLE16=The Seekers - Georgie Girl
TTITLE17=The Hollies - On a Carousel
TTITLE18=Lulu - The Boat That I Row
TTITLE19=Cliff Richard and the Shadows - In The Country
TTITLE20=The Turtles - Elenore
TTITLE21=John Fred and His Playboy Band - Judy In Disguise (with Glass
TTITLE21=es)
TTITLE22=Jackie Wilson - (Your Love Keeps Lifting Me) Higher and Highe
TTITLE22=r
TTITLE23=Brenton Wood - Gimme Little Sign
TTITLE24=The Roaring Sixties - We Love the Pirates
EXTD=
EXTT0=
EXTT1=
EXTT2=
EXTT3=
EXTT4=
EXTT5=
EXTT6=
EXTT7=
EXTT8=
EXTT9=
EXTT10=
EXTT11=
EXTT12=
EXTT13=
EXTT14=
EXTT15=
EXTT16=
EXTT17=
EXTT18=
EXTT19=
EXTT20=
EXTT21=
EXTT22=
EXTT23=
EXTT24=
PLAYORDER=
